<svg width="784" height="631" viewBox="0 0 784 631" fill="none" xmlns="http://www.w3.org/2000/svg">
<path d="M440.55 606.523C438.7 606.523 437.324 605.671 436.423 603.915C432.723 596.941 437.372 577.617 441.926 562.605C447.618 543.866 455.256 524.915 459.952 515.28L460.047 515.12L479.638 545.091V545.144C479.306 545.783 457.011 606.523 440.55 606.523Z" fill="#BA8649"/>
<path d="M536.373 606.523C534.429 606.523 532.958 605.565 531.914 603.648C525.131 590.819 541.259 537.212 551.933 515.28L551.98 515.12L572.52 545.091V545.144C572.331 545.783 552.834 606.523 536.373 606.523Z" fill="#BA8649"/>
<path d="M593.156 606.523C575.984 606.523 554.305 566.118 553.403 564.415H504.258C505.255 567.077 516.308 596.302 511.564 604.447C510.757 605.831 509.524 606.523 507.911 606.523C487.893 606.523 457.817 535.775 449.943 506.869C448.615 501.918 448.899 497.659 450.749 494.785C452.22 492.549 454.592 491.325 457.39 491.325C460.474 491.325 463.937 492.762 467.115 495.424C470.72 498.405 474.041 502.876 476.602 508.306H559.428L559.475 508.359C559.95 509.105 605.347 584.324 599.797 602.371C599.228 604.181 598.137 605.405 596.571 605.937C595.528 606.31 594.342 606.523 593.156 606.523Z" fill="#BA8649"/>
<path d="M504.258 564.415C504.164 564.255 500.843 555.205 495.672 543.6V543.547V543.494C496.099 538.277 502.314 531.942 509.666 531.942C510.52 531.942 511.374 532.049 512.18 532.208C524.229 534.71 528.783 547.22 529.305 548.658C531.819 546.635 534.476 545.623 537.227 545.623C541.971 545.623 545.197 548.711 545.197 548.711C548.517 555.578 553.214 564.096 553.261 564.149L553.356 564.308H504.258V564.415Z" fill="#FFECA8"/>
<path d="M574.276 546.315C565.927 546.315 558.621 540.3 556.107 531.303C554.02 523.904 555.68 515.812 560.472 510.169L560.566 510.063L560.614 510.169C563.745 515.44 571.904 529.334 580.063 545.144L580.11 545.251L580.015 545.304C578.118 545.996 576.22 546.315 574.276 546.315Z" fill="#FFECA8"/>
<path d="M560.424 577.244C560.139 577.244 559.855 577.085 559.665 576.818C555.443 570.164 552.692 564.894 552.644 564.894C552.597 564.788 546.62 553.715 542.872 546.315C542.635 545.783 542.777 545.144 543.252 544.878C543.726 544.612 544.295 544.772 544.533 545.304C548.28 552.703 554.21 563.723 554.305 563.883C554.352 563.936 557.056 569.1 561.23 575.701C561.515 576.18 561.42 576.818 560.993 577.191C560.803 577.191 560.614 577.244 560.424 577.244Z" fill="black"/>
<path d="M472.238 563.936C471.906 563.936 471.574 563.723 471.432 563.403C468.823 558.133 466.119 552.278 463.083 545.357C462.846 544.825 463.035 544.186 463.51 543.92C463.984 543.654 464.553 543.867 464.791 544.399C467.779 551.266 470.483 557.122 473.045 562.339C473.282 562.871 473.14 563.51 472.665 563.776C472.57 563.882 472.381 563.936 472.238 563.936Z" fill="black"/>
<path d="M531.06 487.651C532.056 478.335 536.848 459.863 543.489 459.331C543.536 459.331 543.584 459.331 543.631 459.331C544.532 459.331 545.529 459.917 546.572 461.141C550.035 465.187 553.451 475.727 553.071 484.99V485.096L531.06 487.758V487.651Z" fill="#BA8649"/>
<path d="M563.887 526.885C560.424 526.885 556.771 526.406 552.929 525.501C538.129 521.987 529.258 511.873 524.419 503.941C519.154 495.317 515.691 484.67 515.216 475.461C514.932 469.818 515.928 465.825 517.825 465.133C518.3 464.974 518.869 464.867 519.438 464.867C526.317 464.867 537.512 478.016 538.271 478.974C538.888 478.708 544.058 476.579 550.699 476.579C558.384 476.579 569.01 479.507 576.268 493.401H589.645C592.776 493.401 595.338 496.275 595.338 499.735C595.338 500.268 595.29 500.8 595.195 501.279C592.492 513.097 582.672 526.885 563.887 526.885Z" fill="#BA8649"/>
<path d="M538.271 480.199C538.034 480.199 537.749 480.092 537.559 479.879C537.559 479.879 535.757 477.697 533.195 475.141C532.815 474.769 532.768 474.077 533.1 473.651C533.432 473.225 534.049 473.172 534.428 473.544C537.037 476.153 538.84 478.335 538.887 478.389C539.267 478.815 539.22 479.507 538.84 479.879C538.745 480.092 538.508 480.199 538.271 480.199Z" fill="black"/>
<path d="M563.934 527.896C560.424 527.896 556.676 527.417 552.787 526.512C542.825 524.223 533.717 518.154 527.076 509.477C524.372 509.264 510.805 506.922 498.518 482.328C491.782 468.86 485.805 452.41 480.065 436.493C471.859 413.869 463.367 390.446 452.267 374.103C446.337 365.373 440.218 359.304 433.482 355.684C425.987 351.585 417.923 350.52 408.909 352.49C398.948 354.619 396.623 367.555 393.682 383.898C390.362 402.424 386.614 423.398 370.343 435.908C369.916 436.227 369.299 436.121 369.015 435.642C368.73 435.162 368.825 434.47 369.252 434.151C384.859 422.12 388.559 401.572 391.785 383.472C394.726 367.023 397.287 352.809 408.483 350.414C447.713 342.003 465.028 389.647 481.726 435.748C487.466 451.612 493.395 468.008 500.084 481.37C512.892 507.028 527.313 507.454 527.455 507.454C527.74 507.454 528.024 507.614 528.167 507.827C534.523 516.344 543.347 522.253 553.071 524.489C559.143 525.927 564.788 526.193 569.769 525.341C570.291 525.234 570.765 525.66 570.86 526.246C570.955 526.832 570.576 527.364 570.054 527.47C568.156 527.683 566.116 527.896 563.934 527.896Z" fill="black"/>
<path d="M594.484 503.675C589.835 503.143 586.23 498.777 586.087 493.507V493.401H589.645C592.776 493.401 595.338 496.275 595.338 499.736C595.338 500.268 595.29 500.8 595.195 501.279C595.006 502.025 594.816 502.823 594.579 503.568L594.484 503.675Z" fill="black"/>
<path d="M566.638 496.382C566.259 496.382 565.879 496.116 565.737 495.636L565.358 494.359C565.215 493.827 565.453 493.188 565.974 493.028C566.449 492.815 567.018 493.135 567.16 493.72L567.54 494.998C567.682 495.53 567.445 496.169 566.923 496.328C566.828 496.382 566.733 496.382 566.638 496.382Z" fill="black"/>
<path d="M538.271 480.199C537.891 480.199 537.512 479.932 537.37 479.507C537.18 478.974 537.464 478.335 537.939 478.122C542.445 476.313 547.426 475.461 552.312 475.674C552.834 475.674 553.261 476.206 553.214 476.792C553.214 477.377 552.787 477.856 552.217 477.803C547.569 477.59 542.872 478.389 538.603 480.145C538.508 480.199 538.366 480.199 538.271 480.199Z" fill="black"/>
<path d="M528.309 486.054C527.977 486.054 527.645 485.841 527.502 485.522L523.233 477.005C522.996 476.472 523.138 475.833 523.613 475.567C524.087 475.301 524.656 475.461 524.894 475.993L529.163 484.511C529.4 485.043 529.258 485.682 528.783 485.948C528.641 486.001 528.451 486.054 528.309 486.054Z" fill="black"/>
<path d="M192.475 558.35L192.514 558.306C196.385 551.879 201.955 544.053 209.066 535.003L209.145 534.916L209.184 535.003C213.372 542.567 215.544 551.224 215.544 560.099V560.143L201.718 572.079L192.475 558.35Z" fill="black"/>
<path d="M393.306 618.773C387.262 613.133 380.823 605.394 374.108 595.775L374.069 595.644H374.108C380.468 592.365 387.539 590.616 394.531 590.616H394.61C395.084 590.616 395.597 590.616 396.071 590.66H396.111L404.999 607.187L393.306 618.773Z" fill="black"/>
<path d="M363.956 444.763C363.916 444.763 360.835 443.407 360.44 438.991C360.045 434.619 363.363 428.455 363.403 428.411L363.442 428.367L375.451 429.285L375.412 429.373C374.069 433.92 369.328 443.189 364.035 444.763H363.956Z" fill="black"/>
<path d="M228.462 512.093C219.297 504.923 207.92 488.484 206.301 477.291C205.827 474.012 206.182 471.433 207.446 469.596C207.525 469.509 209.421 467.104 214.794 467.104C217.638 467.104 220.917 467.804 224.59 469.159C234.703 472.875 248.568 486.954 248.726 487.085L248.766 487.128L248.726 487.172C240.905 500.157 228.699 512.006 228.58 512.093L228.541 512.137L228.462 512.093Z" fill="black"/>
<path d="M219.055 525.127L220.082 522.809C224.902 517.126 228.378 513.234 228.655 512.928C229.247 512.36 241.256 500.599 248.919 487.876L252.435 482.017L287.592 512.491L281.746 520.186C278.388 524.821 274.043 529.368 269.461 534.221C265.945 537.893 262.35 541.697 258.874 545.85L253.936 550.179L227.509 560.366L219.055 525.127Z" fill="#FFECA8"/>
<path d="M252.953 482.931L286.807 512.224L281.474 519.22C281.474 519.22 281.474 519.22 281.435 519.263C278.117 523.854 273.771 528.357 269.189 533.21C265.713 536.883 262.078 540.687 258.602 544.797L253.822 548.994L228.343 558.831L220.206 524.86L221.035 522.936C225.696 517.427 229.133 513.623 229.489 513.186C230.318 512.399 242.209 500.638 249.872 487.959L252.953 482.931ZM252.558 480.395L248.568 487.041C240.747 499.982 228.541 511.831 228.422 511.962C228.383 512.006 224.788 515.984 219.732 521.974L218.507 524.685L227.237 561.105L254.612 550.568L259.708 546.108C263.184 541.998 266.819 538.151 270.334 534.478C274.956 529.625 279.302 525.035 282.699 520.4L289.059 512.006L252.558 480.395Z" fill="black"/>
<path d="M209.698 583.883C217.519 568.668 217.282 549.999 209.066 535.09L209.026 535.047L209.066 535.003C212.384 530.806 215.979 526.39 219.771 521.93L219.85 521.843L219.889 521.93C219.968 522.062 229.291 536.927 229.765 553.322L233.715 548.163C237.113 543.747 242.05 541.211 247.304 541.211C250.267 541.211 253.23 542.042 255.837 543.616L259.787 546.021L259.708 546.108C251.452 555.902 241.892 569.805 241.221 590.31C240.47 613.133 235.809 616.805 233.281 618.816L233.202 618.86L209.698 583.883Z" fill="black"/>
<path d="M364.716 580.545C357.132 567.953 350.1 554.749 343.819 541.283L339.079 531.227L378.898 519.335L382.769 524.363C386.206 530.615 389.089 535.818 391.341 539.841L393.079 544.387L394.62 575.561L367.876 584.043L364.716 580.545Z" fill="#FFECA8"/>
<path d="M378.888 520.007L382.403 524.554C385.801 530.762 388.645 535.921 390.897 539.9L392.556 544.272L394.057 574.571L368.42 582.703L365.615 579.642C358.03 567.094 351.038 553.934 344.797 540.512L340.531 531.418L378.888 520.007ZM379.441 518.039L338.2 530.325L343.375 541.343C349.656 554.852 356.727 568.1 364.351 580.779L367.906 584.714L395.676 575.926L394.096 543.922L392.279 539.157C390.027 535.09 387.104 529.844 383.668 523.548L379.441 518.039Z" fill="white"/>
<path d="M206.38 314.823C220.206 325.754 232.135 322.3 239.957 319.196C251.018 314.823 262.869 312.2 277.485 326.191L274.719 331.875C254.573 329.689 249.951 350.85 230.081 363.354C212.7 374.284 195.319 364.666 195.319 364.666L206.38 314.823Z" fill="black"/>
<path d="M406.184 439.385C405.315 439.385 404.327 438.904 403.221 437.986L403.063 437.855C398.363 433.92 395.005 431.078 385.722 429.416C383.984 429.11 380.981 428.936 377.15 428.673L375.332 428.542L363.482 427.668L351.394 426.269L365.536 396.844L375.688 398.331C392.477 401.391 404.13 404.058 412.544 412.584C416.889 416.956 417.442 419.448 417.166 420.76C416.929 421.984 415.823 422.465 415.507 422.596C415.27 422.683 415.112 422.902 415.033 423.164C414.954 423.427 414.993 423.689 415.151 423.951C415.388 424.301 416.534 426.225 416.139 427.93C415.902 428.979 415.151 429.81 413.927 430.466L413.413 430.684C413.018 430.816 412.82 431.296 412.9 431.69C412.939 431.952 413.216 433.351 412.544 434.444C412.07 435.231 411.201 435.669 409.937 435.8C409.621 435.843 409.384 436.062 409.265 436.368C409.186 436.674 408.238 439.385 406.184 439.385Z" fill="#FFECA8"/>
<path d="M366.01 397.763L375.609 399.162C392.279 402.222 403.814 404.845 412.07 413.196C416.494 417.656 416.613 419.798 416.455 420.541C416.297 421.328 415.467 421.722 415.309 421.765C414.835 421.94 414.48 422.377 414.361 422.902C414.243 423.427 414.282 423.995 414.598 424.432C415.033 425.132 415.704 426.575 415.467 427.711C415.309 428.455 414.717 429.11 413.729 429.635L413.255 429.81C412.505 430.116 412.07 430.991 412.228 431.865C412.268 431.996 412.465 433.133 411.991 433.92C411.635 434.488 410.964 434.794 409.937 434.925C409.344 435.013 408.831 435.45 408.633 436.062C408.594 436.15 407.804 438.467 406.263 438.467C405.592 438.467 404.722 438.03 403.774 437.243L403.616 437.111C399.034 433.22 395.4 430.204 385.959 428.542C384.181 428.236 381.139 428.017 377.308 427.799L375.53 427.668L363.679 426.793L352.737 425.525L366.01 397.763ZM365.141 395.883L350.169 427.012L363.442 428.542L375.293 429.417L377.071 429.548C380.863 429.81 383.865 429.985 385.564 430.291C394.61 431.865 397.928 434.663 402.55 438.554L402.708 438.685C403.932 439.735 405.118 440.259 406.145 440.259C408.712 440.259 409.818 437.155 409.976 436.718C411.477 436.543 412.544 435.975 413.176 434.969C414.045 433.57 413.729 431.909 413.65 431.515L414.203 431.297C415.704 430.51 416.613 429.46 416.889 428.149C417.363 426.05 416.099 423.908 415.783 423.427C416.178 423.252 417.6 422.596 417.916 420.935C418.39 418.661 416.771 415.644 413.058 411.884C404.446 403.184 392.714 400.517 375.767 397.413L365.141 395.883Z" fill="black"/>
<path d="M383.589 523.635C372.804 504.005 355.858 472.7 334.526 433.133C347.997 440.128 360.282 444.631 363.995 444.763C357.675 441.877 363.521 428.455 363.521 428.455C363.798 427.886 365.22 425.001 371.145 414.245C376.044 405.326 375.846 397.675 375.846 397.587V397.413H375.767C374.029 397.107 372.212 396.888 370.355 396.538C368.617 396.232 366.839 395.926 365.022 395.576C353.962 393.565 340.847 388.493 328.087 381.367C315.723 374.459 305.057 366.371 298.026 358.588L297.986 358.545L292.495 361.343L278.986 345.341L278.946 345.472C271.124 376.47 249.082 414.726 207.446 469.596C207.446 469.596 221.983 460.59 248.608 487.259C249.872 488.615 267.411 508.246 282.541 520.4C300.514 534.784 318.37 541.517 338.714 541.517C340.294 541.517 341.874 541.474 343.375 541.474C369.17 540.162 383.431 523.898 383.589 523.723V523.635Z" fill="#EB1A6A"/>
<path d="M409.107 436.587C408.87 436.587 408.633 436.456 408.475 436.237C403.024 427.711 392.674 422.596 392.556 422.552C392.161 422.377 391.963 421.853 392.161 421.416C392.319 420.978 392.793 420.76 393.188 420.978C393.622 421.197 404.051 426.356 409.739 435.275C409.976 435.669 409.897 436.193 409.542 436.499C409.423 436.543 409.265 436.587 409.107 436.587Z" fill="black"/>
<path d="M412.979 431.603C412.702 431.603 412.465 431.471 412.307 431.209C406.658 421.722 394.294 416.65 394.175 416.606C393.78 416.431 393.543 415.95 393.701 415.469C393.859 415.032 394.294 414.77 394.728 414.945C395.242 415.163 407.725 420.279 413.65 430.247C413.887 430.641 413.808 431.209 413.413 431.471C413.295 431.559 413.137 431.603 412.979 431.603Z" fill="black"/>
<path d="M414.796 423.995C414.559 423.995 414.361 423.908 414.203 423.689C405.987 413.458 396.862 410.092 396.783 410.092C396.348 409.961 396.151 409.436 396.269 408.999C396.388 408.518 396.862 408.299 397.257 408.43C397.652 408.562 406.895 411.928 415.388 422.552C415.665 422.902 415.665 423.47 415.309 423.776C415.151 423.908 414.993 423.995 414.796 423.995Z" fill="black"/>
<path d="M275.825 366.196C271.48 366.196 267.925 362.261 267.925 357.452C267.925 352.642 271.48 348.707 275.825 348.707C280.171 348.707 283.726 352.642 283.726 357.452C283.726 362.261 280.171 366.196 275.825 366.196Z" fill="#FFECA8"/>
<path d="M275.825 349.625C279.736 349.625 282.936 353.167 282.936 357.495C282.936 361.824 279.736 365.365 275.825 365.365C271.914 365.365 268.715 361.824 268.715 357.495C268.715 353.123 271.914 349.625 275.825 349.625ZM275.825 347.877C271.045 347.877 267.135 352.161 267.135 357.495C267.135 362.786 271.006 367.114 275.825 367.114C280.645 367.114 284.516 362.829 284.516 357.495C284.476 352.161 280.605 347.877 275.825 347.877Z" fill="black"/>
<path d="M293.088 365.19C290.046 365.19 286.767 363.529 283.607 360.337C269.781 346.39 269.623 338.52 273.89 330.257C273.89 330.257 275.588 327.153 278.59 324.136C282.541 320.114 286.807 318.103 291.231 318.103C291.547 318.103 291.903 318.103 292.258 318.146C298.579 318.584 303.991 329.164 304.82 342.718C305.294 350.631 303.596 357.539 300.08 361.693C298.105 363.966 295.695 365.19 293.088 365.19Z" fill="#FFECA8"/>
<path d="M291.231 318.977C291.547 318.977 291.863 318.977 292.179 319.021C294.866 319.196 297.552 321.557 299.724 325.666C302.055 330.082 303.596 336.159 303.991 342.761C304.465 350.325 302.766 357.189 299.487 361.08C297.67 363.223 295.458 364.359 293.088 364.359C290.244 364.359 287.163 362.742 284.16 359.725C270.729 346.172 270.532 338.608 274.561 330.738C274.798 330.301 281.198 318.977 291.231 318.977ZM291.231 317.228C280.013 317.228 273.218 329.864 273.218 329.864C268.438 339.089 269.742 347.527 283.094 360.993C286.61 364.534 290.007 366.065 293.088 366.065C300.831 366.065 306.4 356.14 305.571 342.63C304.702 328.377 298.934 317.709 292.298 317.272C291.942 317.228 291.587 317.228 291.231 317.228Z" fill="black"/>
<path d="M297.749 344.904C297.552 344.904 297.394 344.816 297.236 344.685C296.92 344.379 296.88 343.811 297.157 343.461C297.552 342.936 297.67 342.368 297.71 341.931C297.789 340.881 296.643 338.433 295.379 335.941C295.182 335.504 295.3 334.979 295.695 334.76C296.09 334.542 296.564 334.673 296.762 335.11C298.737 339.045 299.369 340.794 299.25 342.105C299.132 343.067 298.816 343.898 298.302 344.554C298.184 344.816 297.986 344.904 297.749 344.904Z" fill="black"/>
<path d="M291.508 341.187C291.192 341.187 290.915 340.969 290.797 340.663L290.441 339.745C290.283 339.307 290.441 338.783 290.836 338.608C291.231 338.433 291.705 338.608 291.863 339.045L292.219 339.963C292.377 340.4 292.219 340.925 291.824 341.1C291.705 341.144 291.626 341.187 291.508 341.187Z" fill="black"/>
<path d="M299.882 334.717C299.566 334.717 299.29 334.498 299.132 334.192L298.776 333.23C298.618 332.793 298.816 332.268 299.211 332.093C299.606 331.918 300.08 332.137 300.238 332.574L300.593 333.536C300.751 333.973 300.554 334.498 300.159 334.673C300.08 334.717 300.001 334.717 299.882 334.717Z" fill="black"/>
<path d="M295.656 351.112C294.234 351.112 292.89 350.238 292.258 348.751C292.061 348.314 292.258 347.789 292.653 347.571C293.048 347.352 293.523 347.571 293.72 348.008C294.194 349.188 295.498 349.713 296.564 349.145C296.683 349.101 296.801 349.013 296.88 348.926C297.236 348.62 297.71 348.707 297.986 349.101C298.263 349.494 298.184 350.019 297.828 350.325C297.631 350.5 297.394 350.631 297.236 350.718C296.762 350.981 296.209 351.112 295.656 351.112Z" fill="black"/>
<path d="M274.877 359.9C274.64 359.9 274.443 359.813 274.285 359.594C274.008 359.244 274.048 358.676 274.364 358.37L278.195 354.697C278.511 354.391 279.025 354.435 279.301 354.785C279.578 355.134 279.538 355.703 279.222 356.009L275.391 359.681C275.233 359.813 275.075 359.9 274.877 359.9Z" fill="black"/>
<path d="M300.159 323.917C291.784 333.143 278.156 330.65 278.156 330.65C282.185 337.515 285.938 347.745 281.158 358.588C281.158 358.588 276.141 353.998 272.112 344.772C268.083 335.547 275.509 325.666 280.803 321.862C286.096 318.059 293.483 313.949 300.159 323.917Z" fill="black"/>
<path d="M415.902 596.256C409.305 592.671 401.957 590.791 394.61 590.791C387.499 590.791 380.626 592.496 374.187 595.775L374.147 595.819L374.108 595.775C370.908 591.185 367.59 586.157 364.351 580.779L364.311 580.691L364.43 580.604C364.548 580.517 374.7 573.084 389.632 573.084C389.988 573.084 390.344 573.084 390.739 573.084L388.605 570.155C382.641 561.891 383.075 549.868 389.593 542.173L392.279 539.025L392.319 539.113C395.202 544.316 397.138 547.682 398.047 549.125C405.434 560.798 413.255 563.159 423.526 563.159C424.513 563.159 425.619 563.116 426.804 563.072C427.16 563.072 427.555 563.072 427.911 563.072C438.497 563.072 443.04 569.193 443.08 569.237L443.119 569.28L415.981 596.3L415.902 596.256Z" fill="black"/>
<path d="M406.856 559.443C406.5 559.443 406.184 559.181 406.105 558.787L397.494 524.772C396.783 522.018 397.099 519.132 398.402 516.596C399.666 514.104 401.76 512.268 404.249 511.481C405.039 511.219 405.868 511.088 406.856 511.088C412.228 511.088 416.573 515.897 416.573 521.843C416.573 522.761 416.455 523.723 416.218 524.729L407.606 558.787C407.527 559.181 407.211 559.443 406.856 559.443ZM406.856 512.88C406.026 512.88 405.315 512.968 404.683 513.186C402.59 513.842 400.851 515.372 399.745 517.471C398.679 519.569 398.402 522.018 398.995 524.291L406.856 555.29L414.717 524.291C414.914 523.461 414.993 522.63 414.993 521.843C414.993 516.903 411.359 512.88 406.856 512.88Z" fill="black"/>
<path d="M407.014 559.399C406.579 559.399 406.263 559.05 406.224 558.569C406.184 558.088 406.54 557.694 406.974 557.651C412.9 557.257 415.744 554.503 418.746 551.617C421.156 549.256 423.644 546.852 427.753 545.627C428.187 545.496 428.622 545.759 428.701 546.239C428.819 546.72 428.582 547.201 428.148 547.289C424.395 548.425 422.143 550.568 419.773 552.885C416.692 555.858 413.532 558.962 407.053 559.356C407.053 559.399 407.014 559.399 407.014 559.399Z" fill="black"/>
<path d="M279.697 585.457C279.42 585.457 279.104 585.457 278.827 585.413C277.958 585.326 277.01 585.107 276.141 584.758L244.974 571.86C244.658 571.729 244.42 571.379 244.46 570.986C244.499 570.592 244.737 570.286 245.092 570.199L277.8 563.291C280.447 562.722 283.133 563.378 285.385 565.039C287.637 566.745 289.138 569.28 289.612 572.21C289.77 573.215 289.809 574.265 289.73 575.27C289.493 578.243 288.229 580.954 286.175 582.878C284.358 584.539 282.106 585.457 279.697 585.457ZM248.173 571.292L276.694 583.096C277.445 583.402 278.235 583.577 278.986 583.665C283.647 584.102 287.795 580.254 288.19 575.052C288.269 574.221 288.229 573.303 288.071 572.472C287.637 569.98 286.373 567.838 284.476 566.439C282.58 565.039 280.329 564.471 278.077 564.952L248.173 571.292Z" fill="black"/>
<path d="M403.103 567.969C402.984 567.969 402.866 567.925 402.747 567.881C402.352 567.663 402.194 567.138 402.392 566.701L406.342 557.957C406.54 557.519 407.014 557.345 407.409 557.563C407.804 557.782 407.962 558.306 407.764 558.744L403.814 567.488C403.656 567.794 403.379 567.969 403.103 567.969Z" fill="black"/>
<path d="M414.164 573.652C414.124 573.652 414.085 573.652 414.045 573.652C413.611 573.609 413.295 573.172 413.374 572.691L414.559 562.198C414.598 561.717 414.993 561.367 415.428 561.454C415.862 561.498 416.178 561.935 416.099 562.416L414.914 572.909C414.914 573.346 414.559 573.652 414.164 573.652Z" fill="black"/>
<path d="M334.408 433.701C334.289 433.701 334.21 433.657 334.092 433.614C320.74 427.056 310.469 420.016 304.149 415.251C297.315 410.092 293.68 406.55 293.562 406.375C293.246 406.069 293.206 405.501 293.483 405.151C293.759 404.802 294.273 404.758 294.589 405.064C294.628 405.108 298.302 408.693 305.057 413.808C311.299 418.53 321.49 425.482 334.724 431.996C335.119 432.171 335.316 432.696 335.119 433.133C335 433.526 334.724 433.701 334.408 433.701Z" fill="black"/>
<path d="M361.23 530.369C360.954 530.369 360.717 530.237 360.559 529.975L345.666 505.448L321.056 530.15C320.779 530.412 320.384 530.456 320.108 530.237C319.792 530.019 319.673 529.625 319.792 529.232L329.746 495.698L294.787 491.457C294.431 491.413 294.115 491.107 294.076 490.67C294.036 490.276 294.273 489.883 294.589 489.752L329.43 476.46L321.767 448.829C321.648 448.479 321.806 448.042 322.083 447.867C322.359 447.648 322.754 447.648 323.031 447.911L346.456 468.809L347.839 459.365C347.918 458.885 348.313 458.578 348.747 458.622C349.182 458.71 349.458 459.147 349.419 459.628L347.839 470.558C347.799 470.864 347.602 471.126 347.325 471.258C347.049 471.389 346.772 471.301 346.535 471.126L324.058 451.058L331.208 476.766C331.327 477.204 331.129 477.685 330.695 477.859L298.46 490.145L330.892 494.08C331.129 494.124 331.327 494.255 331.485 494.474C331.643 494.692 331.643 494.954 331.564 495.217L322.241 526.609L345.311 503.48C345.469 503.305 345.706 503.218 345.943 503.261C346.18 503.305 346.377 503.436 346.496 503.655L360.44 526.652V499.327C360.44 499.064 360.559 498.802 360.756 498.627C360.954 498.452 361.191 498.408 361.428 498.452L372.172 501.425C372.607 501.556 372.844 502.037 372.765 502.474C372.686 502.912 372.212 503.218 371.817 503.13L362.06 500.42V529.494C362.06 529.888 361.823 530.237 361.507 530.325C361.388 530.369 361.309 530.369 361.23 530.369Z" fill="black"/>
<path d="M270.769 484.899C270.453 484.899 270.176 484.68 270.058 484.374L257.812 452.982L236.876 468.984C236.599 469.203 236.244 469.203 235.967 468.984C235.69 468.766 235.572 468.372 235.691 468.022L244.065 439.472L230.911 439.429C230.476 439.429 230.121 439.035 230.121 438.554C230.121 438.073 230.476 437.68 230.911 437.68L245.132 437.724C245.369 437.724 245.606 437.855 245.764 438.073C245.922 438.292 245.961 438.598 245.882 438.86L237.863 466.099L257.654 450.971C257.852 450.84 258.089 450.796 258.326 450.84C258.563 450.927 258.721 451.102 258.839 451.321L270.176 480.352L271.954 450.315C271.954 450.097 272.073 449.878 272.231 449.703C272.389 449.528 272.586 449.485 272.823 449.485L298.421 451.408L275.233 435.931C274.996 435.756 274.877 435.494 274.838 435.188C274.838 434.882 274.956 434.619 275.193 434.444L293.839 420.629L273.06 420.716C272.863 420.716 272.626 420.629 272.468 420.454C272.31 420.279 272.231 420.06 272.27 419.798L273.732 392.166L260.143 416.694C259.985 416.956 259.708 417.131 259.432 417.131C259.155 417.131 258.879 416.912 258.76 416.606L253.072 402.615C252.874 402.178 253.072 401.654 253.467 401.479C253.862 401.26 254.336 401.479 254.494 401.916L259.55 414.376L274.048 388.275C274.245 387.925 274.601 387.794 274.956 387.881C275.312 388.013 275.549 388.362 275.509 388.756L273.89 418.967L296.446 418.88C296.801 418.88 297.117 419.142 297.196 419.492C297.315 419.842 297.157 420.279 296.88 420.454L277.089 435.144L301.976 451.802C302.292 452.02 302.45 452.414 302.332 452.807C302.213 453.201 301.897 453.463 301.542 453.419L273.495 451.277L271.559 484.068C271.519 484.461 271.282 484.811 270.887 484.855C270.848 484.899 270.808 484.899 270.769 484.899Z" fill="black"/>
<path d="M372.409 412.54C372.133 412.54 371.856 412.365 371.698 412.059L364.469 396.101C364.272 395.664 364.43 395.139 364.825 394.921C365.22 394.702 365.694 394.877 365.891 395.314L373.12 411.272C373.318 411.709 373.16 412.234 372.765 412.453C372.646 412.496 372.528 412.54 372.409 412.54Z" fill="black"/>
<path d="M349.379 432.433C349.024 432.433 348.708 432.171 348.629 431.821L340.965 403.883L317.698 414.857C317.382 415.032 316.987 414.901 316.75 414.595C316.513 414.289 316.513 413.852 316.75 413.546L330.457 392.997L306.44 382.11C306.084 381.979 305.887 381.586 305.966 381.192C306.005 380.799 306.321 380.493 306.677 380.449L324.769 378.613C325.204 378.569 325.599 378.919 325.638 379.4C325.678 379.881 325.362 380.318 324.927 380.361L310.035 381.892L331.998 391.86C332.235 391.948 332.393 392.166 332.472 392.428C332.551 392.691 332.472 392.953 332.354 393.172L319.792 412.059L341.242 401.96C341.439 401.872 341.676 401.872 341.874 401.96C342.071 402.047 342.229 402.266 342.308 402.484L349.419 428.455L354.989 406.419C355.068 406.157 355.226 405.938 355.463 405.851C355.7 405.763 355.937 405.763 356.174 405.938L370.395 415.557C370.75 415.819 370.869 416.344 370.671 416.737C370.434 417.131 369.96 417.262 369.565 417.043L356.253 408.037L350.209 431.865C350.051 432.171 349.735 432.433 349.379 432.433Z" fill="black"/>
<path d="M254.77 597.218C254.415 597.218 254.059 596.912 253.98 596.519C253.269 592.103 251.413 589.305 249.437 586.375C246.988 582.703 244.421 578.899 244.46 571.86L235.019 568.931C234.584 568.799 234.347 568.318 234.466 567.838C234.584 567.357 235.019 567.094 235.453 567.225L245.487 570.33C245.843 570.417 246.08 570.811 246.08 571.204C245.922 578.068 248.252 581.61 250.741 585.326C252.716 588.299 254.77 591.36 255.56 596.169C255.639 596.65 255.363 597.087 254.928 597.175C254.849 597.218 254.81 597.218 254.77 597.218Z" fill="black"/>
<path d="M242.05 581.61C242.011 581.61 241.971 581.61 241.932 581.61L231.938 579.773C231.503 579.686 231.227 579.249 231.306 578.768C231.385 578.287 231.78 577.981 232.214 578.068L242.209 579.905C242.643 579.992 242.92 580.429 242.841 580.91C242.762 581.304 242.446 581.61 242.05 581.61Z" fill="black"/>
<path d="M774.38 199.255C776.84 205.419 778.108 212.073 778.105 218.799C778.105 247.38 755.513 270.552 727.647 270.552C701.232 270.552 679.557 249.745 677.37 223.221C668.359 225.097 659.034 223.174 651.267 217.838C637.276 238.785 612.194 252.746 583.581 252.746C552.73 252.746 525.987 236.517 512.818 212.803C507.967 220.806 500.15 227.007 490.776 230.078C490.776 230.325 490.792 230.571 490.792 230.82C490.792 234.972 489.284 238.954 486.599 241.889C483.914 244.825 480.273 246.475 476.476 246.475C472.679 246.475 469.038 244.825 466.353 241.889C463.668 238.954 462.16 234.972 462.16 230.82C462.16 230.363 462.179 229.908 462.216 229.46C447.19 223.807 436.583 209.943 436.583 193.755C436.583 172.52 454.846 155.306 477.379 155.306C488.259 155.306 498.146 159.321 505.462 165.856C512.322 131.789 544.688 106 583.581 106C615.432 106 642.906 123.29 655.585 148.276C660.255 145.963 665.321 144.759 670.447 144.745C675.574 144.731 680.646 145.907 685.326 148.194C690.007 150.482 694.191 153.829 697.601 158.015C701.011 162.202 703.57 167.131 705.109 172.479C713.309 168.313 722.342 166.494 731.361 167.191C740.38 167.889 749.089 171.081 756.671 176.467C757.873 174.396 759.503 172.662 761.431 171.406C763.358 170.149 765.528 169.406 767.767 169.236C770.005 169.066 772.249 169.473 774.316 170.426C776.384 171.378 778.218 172.848 779.671 174.718C781.123 176.588 782.154 178.806 782.679 181.191C783.203 183.577 783.208 186.064 782.692 188.451C782.177 190.839 781.155 193.061 779.71 194.938C778.264 196.814 776.436 198.293 774.372 199.255H774.38Z" fill="#59D7A9"/>
<path d="M465.456 207.384C467.194 207.384 468.602 205.844 468.602 203.944C468.602 202.044 467.194 200.504 465.456 200.504C463.718 200.504 462.31 202.044 462.31 203.944C462.31 205.844 463.718 207.384 465.456 207.384Z" fill="#FFECA8"/>
<path d="M489.564 182.812C491.302 182.812 492.711 181.272 492.711 179.371C492.711 177.471 491.302 175.931 489.564 175.931C487.827 175.931 486.418 177.471 486.418 179.371C486.418 181.272 487.827 182.812 489.564 182.812Z" fill="#FFECA8"/>
<path d="M500.965 191.73C502.702 191.73 504.111 190.189 504.111 188.289C504.111 186.389 502.702 184.849 500.965 184.849C499.227 184.849 497.818 186.389 497.818 188.289C497.818 190.189 499.227 191.73 500.965 191.73Z" fill="#FFECA8"/>
<path d="M533.21 182.812C534.947 182.812 536.356 181.272 536.356 179.371C536.356 177.471 534.947 175.931 533.21 175.931C531.472 175.931 530.063 177.471 530.063 179.371C530.063 181.272 531.472 182.812 533.21 182.812Z" fill="#FFECA8"/>
<path d="M531.256 210.825C532.993 210.825 534.402 209.284 534.402 207.384C534.402 205.484 532.993 203.944 531.256 203.944C529.518 203.944 528.109 205.484 528.109 207.384C528.109 209.284 529.518 210.825 531.256 210.825Z" fill="#FFECA8"/>
<path d="M566.381 200.503C568.119 200.503 569.527 198.963 569.527 197.063C569.527 195.163 568.119 193.623 566.381 193.623C564.644 193.623 563.235 195.163 563.235 197.063C563.235 198.963 564.644 200.503 566.381 200.503Z" fill="#FFECA8"/>
<path d="M558.805 212.947C560.543 212.947 561.951 211.406 561.951 209.506C561.951 207.606 560.543 206.066 558.805 206.066C557.068 206.066 555.659 207.606 555.659 209.506C555.659 211.406 557.068 212.947 558.805 212.947Z" fill="#FFECA8"/>
<path d="M556.419 149.013C558.156 149.013 559.565 147.473 559.565 145.573C559.565 143.673 558.156 142.133 556.419 142.133C554.681 142.133 553.273 143.673 553.273 145.573C553.273 147.473 554.681 149.013 556.419 149.013Z" fill="#FFECA8"/>
<path d="M567.141 142.329C568.879 142.329 570.287 140.789 570.287 138.888C570.287 136.988 568.879 135.448 567.141 135.448C565.404 135.448 563.995 136.988 563.995 138.888C563.995 140.789 565.404 142.329 567.141 142.329Z" fill="#FFECA8"/>
<path d="M548.607 132.456C550.344 132.456 551.753 130.916 551.753 129.016C551.753 127.115 550.344 125.575 548.607 125.575C546.869 125.575 545.461 127.115 545.461 129.016C545.461 130.916 546.869 132.456 548.607 132.456Z" fill="#FFECA8"/>
<path d="M598.811 172.637C600.549 172.637 601.957 171.097 601.957 169.197C601.957 167.297 600.549 165.756 598.811 165.756C597.073 165.756 595.665 167.297 595.665 169.197C595.665 171.097 597.073 172.637 598.811 172.637Z" fill="#FFECA8"/>
<path d="M588.608 227.362C590.346 227.362 591.755 225.821 591.755 223.921C591.755 222.021 590.346 220.481 588.608 220.481C586.871 220.481 585.462 222.021 585.462 223.921C585.462 225.821 586.871 227.362 588.608 227.362Z" fill="#FFECA8"/>
<path d="M708.614 190.49C710.352 190.49 711.761 188.95 711.761 187.049C711.761 185.149 710.352 183.609 708.614 183.609C706.877 183.609 705.468 185.149 705.468 187.049C705.468 188.95 706.877 190.49 708.614 190.49Z" fill="#FFECA8"/>
<path d="M680.315 210.872C682.052 210.872 683.461 209.331 683.461 207.431C683.461 205.531 682.052 203.991 680.315 203.991C678.577 203.991 677.168 205.531 677.168 207.431C677.168 209.331 678.577 210.872 680.315 210.872Z" fill="#FFECA8"/>
<path d="M134.537 258.769C136.275 258.769 137.683 257.229 137.683 255.328C137.683 253.428 136.275 251.888 134.537 251.888C132.799 251.888 131.391 253.428 131.391 255.328C131.391 257.229 132.799 258.769 134.537 258.769Z" fill="#FFECA8"/>
<path d="M616.58 131.36C618.317 131.36 619.726 129.82 619.726 127.919C619.726 126.019 618.317 124.479 616.58 124.479C614.842 124.479 613.434 126.019 613.434 127.919C613.434 129.82 614.842 131.36 616.58 131.36Z" fill="#FFECA8"/>
<path d="M619.723 147.399C621.461 147.399 622.87 145.858 622.87 143.958C622.87 142.058 621.461 140.518 619.723 140.518C617.986 140.518 616.577 142.058 616.577 143.958C616.577 145.858 617.986 147.399 619.723 147.399Z" fill="#FFECA8"/>
<path d="M617.618 200.503C619.356 200.503 620.765 198.963 620.765 197.063C620.765 195.163 619.356 193.623 617.618 193.623C615.881 193.623 614.472 195.163 614.472 197.063C614.472 198.963 615.881 200.503 617.618 200.503Z" fill="#FFECA8"/>
<path d="M649.193 182.812C650.931 182.812 652.339 181.272 652.339 179.371C652.339 177.471 650.931 175.931 649.193 175.931C647.455 175.931 646.047 177.471 646.047 179.371C646.047 181.272 647.455 182.812 649.193 182.812Z" fill="#FFECA8"/>
<path d="M655.483 191.73C657.22 191.73 658.629 190.189 658.629 188.289C658.629 186.389 657.22 184.849 655.483 184.849C653.745 184.849 652.337 186.389 652.337 188.289C652.337 190.189 653.745 191.73 655.483 191.73Z" fill="#FFECA8"/>
<path d="M686.714 169.197C688.452 169.197 689.86 167.656 689.86 165.756C689.86 163.856 688.452 162.316 686.714 162.316C684.977 162.316 683.568 163.856 683.568 165.756C683.568 167.656 684.977 169.197 686.714 169.197Z" fill="#FFECA8"/>
<path d="M697.501 232.769C699.239 232.769 700.647 231.228 700.647 229.328C700.647 227.428 699.239 225.888 697.501 225.888C695.763 225.888 694.355 227.428 694.355 229.328C694.355 231.228 695.763 232.769 697.501 232.769Z" fill="#FFECA8"/>
<path d="M711.587 225.231C713.324 225.231 714.733 223.691 714.733 221.791C714.733 219.891 713.324 218.35 711.587 218.35C709.849 218.35 708.44 219.891 708.44 221.791C708.44 223.691 709.849 225.231 711.587 225.231Z" fill="#FFECA8"/>
<path d="M723.035 249.713C724.773 249.713 726.181 248.172 726.181 246.272C726.181 244.372 724.773 242.832 723.035 242.832C721.298 242.832 719.889 244.372 719.889 246.272C719.889 248.172 721.298 249.713 723.035 249.713Z" fill="#FFECA8"/>
<path d="M768.771 188.292C770.508 188.292 771.917 186.752 771.917 184.852C771.917 182.951 770.508 181.411 768.771 181.411C767.033 181.411 765.624 182.951 765.624 184.852C765.624 186.752 767.033 188.292 768.771 188.292Z" fill="#FFECA8"/>
<path d="M744.868 216.384C746.606 216.384 748.014 214.844 748.014 212.944C748.014 211.043 746.606 209.503 744.868 209.503C743.131 209.503 741.722 211.043 741.722 212.944C741.722 214.844 743.131 216.384 744.868 216.384Z" fill="#FFECA8"/>
<path d="M623.702 361.606V347.581C623.702 341.933 628.941 337.356 635.399 337.356V341.233C635.399 349.257 631.063 356.812 623.702 361.606Z" fill="#59D7A9"/>
<path d="M624.444 348.726C620.804 346.918 617.716 344.001 615.551 340.325C613.386 336.649 612.235 332.368 612.235 327.996V318.132C615.473 318.132 618.578 319.538 620.868 322.042C623.158 324.546 624.444 327.942 624.444 331.483V348.726Z" fill="#59D7A9"/>
<path d="M498.128 145.069C498.096 145.327 498.056 145.585 498.01 145.837C497.037 145.933 496.057 145.906 495.089 145.758C488.003 144.685 483.07 137.455 484.061 129.616C484.096 129.358 484.134 129.1 484.179 128.848C485.152 128.753 486.132 128.778 487.1 128.925C494.186 129.997 499.128 137.227 498.128 145.069Z" fill="#59D7A9"/>
<path d="M655.105 235.661C655.314 235.784 655.523 235.913 655.724 236.048C655.47 237.079 655.111 238.076 654.652 239.019C651.286 245.918 643.378 248.491 636.991 244.766C636.78 244.643 636.573 244.514 636.372 244.382C636.625 243.349 636.985 242.351 637.444 241.408C640.81 234.509 648.716 231.936 655.105 235.661Z" fill="#59D7A9"/>
<path d="M731.142 287.857C731.354 287.98 731.56 288.106 731.761 288.24C731.508 289.272 731.149 290.269 730.689 291.212C727.326 298.113 719.417 300.686 713.028 296.962C712.819 296.839 712.61 296.71 712.409 296.575C712.663 295.543 713.023 294.547 713.481 293.603C716.847 286.702 724.756 284.132 731.142 287.857Z" fill="#59D7A9"/>
<path d="M663.053 223.066V620.817" stroke="black" stroke-width="5" stroke-miterlimit="10"/>
<path d="M716.668 269.318C716.668 269.318 707.54 312.359 677.327 327.841C673.078 329.99 669.478 333.42 666.949 337.728C664.421 342.037 663.07 347.045 663.053 352.164" stroke="black" stroke-width="5" stroke-miterlimit="10"/>
<path d="M604.031 250.293C604.031 250.293 616.445 280.674 649.083 293.823C653.19 295.492 656.731 298.497 659.229 302.434C661.726 306.37 663.061 311.049 663.053 315.84" stroke="black" stroke-width="5" stroke-miterlimit="10"/>
<path d="M544.642 242.835V249.953C544.642 252.228 545.051 254.481 545.847 256.583C546.643 258.684 547.81 260.594 549.281 262.203C550.752 263.811 552.498 265.087 554.42 265.958C556.342 266.828 558.402 267.276 560.483 267.275H603.897C610.285 267.274 616.428 269.965 621.049 274.789" stroke="black" stroke-width="5" stroke-miterlimit="10"/>
<path d="M623.581 347.276V367.678C623.581 373.337 624.716 378.928 626.906 384.056C629.096 389.183 632.288 393.723 636.257 397.356L649.839 409.816C653.978 413.613 657.306 418.355 659.589 423.709C661.872 429.063 663.054 434.899 663.053 440.806" stroke="black" stroke-width="5" stroke-miterlimit="10"/>
<path d="M125.361 276.054V615.907" stroke="black" stroke-width="5" stroke-miterlimit="10"/>
<path d="M189.011 292.998C184.613 305.945 171.428 332.044 139.382 342.884C135.321 344.262 131.77 347.025 129.249 350.769C126.728 354.513 125.369 359.042 125.371 363.691" stroke="black" stroke-width="5" stroke-miterlimit="10" stroke-linecap="round"/>
<path d="M96.088 297.687C96.088 297.687 97.8272 308.823 116.321 312.483C121.413 313.491 125.406 318.265 125.406 323.912" stroke="black" stroke-width="5" stroke-miterlimit="10"/>
<path d="M144.136 272.32V284.5C144.138 287.334 143.321 290.097 141.803 292.394C140.285 294.692 138.143 296.406 135.681 297.294L132.921 298.291C130.744 299.074 128.848 300.588 127.505 302.618C126.161 304.649 125.438 307.091 125.438 309.597" stroke="black" stroke-width="5" stroke-miterlimit="10"/>
<path d="M34.946 318.327C35.1711 318.397 35.3962 318.473 35.6159 318.558C35.5661 319.612 35.407 320.656 35.1416 321.67C33.1933 329.099 26.0299 333.372 19.1666 331.218C18.9389 331.148 18.7137 331.071 18.494 330.986C18.5445 329.932 18.7046 328.887 18.971 327.871C20.9166 320.445 28.0693 316.173 34.946 318.327Z" fill="#59D7A9"/>
<path d="M44.8458 244.783C44.755 243.732 44.7739 242.673 44.9021 241.627C45.8427 233.967 52.3549 228.607 59.4432 229.647C59.6764 229.682 59.9095 229.723 60.1373 229.77C60.2281 230.821 60.2092 231.88 60.081 232.926C59.1404 240.587 52.6282 245.946 45.5399 244.906C45.3068 244.871 45.0656 244.83 44.8458 244.783Z" fill="white"/>
<path d="M244.381 252.791C244.379 263.75 240.583 274.302 233.755 282.324C226.927 290.346 217.575 295.243 207.58 296.03C197.584 296.817 187.686 293.436 179.878 286.567C172.07 279.697 166.93 269.849 165.492 259.004C155.223 269.662 141.033 276.25 125.361 276.25C119.658 276.257 113.984 275.369 108.512 273.613C106.671 283.149 102.198 291.782 95.8522 298.786C97.5763 306.506 96.4917 314.657 92.8271 321.519C89.1624 328.382 83.204 333.421 76.2082 335.573C69.2123 337.725 61.7255 336.823 55.3263 333.056C48.9271 329.289 44.1154 322.952 41.9057 315.381C17.8669 309.787 0 288.807 0 263.781C0 234.476 24.4997 210.715 54.7237 210.715C59.4658 210.71 64.1925 211.306 68.8093 212.491C71.2051 182.268 95.6083 158.519 125.355 158.519C156.641 158.519 182.008 184.777 182.105 217.203C188.05 212.684 195.014 210.031 202.24 209.533C209.467 209.035 216.68 210.711 223.097 214.378C229.514 218.045 234.89 223.564 238.642 230.336C242.394 237.108 244.379 244.874 244.381 252.791Z" fill="#59D7A9"/>
<path d="M44.6227 304.946C46.2538 304.946 47.576 303.5 47.576 301.717C47.576 299.933 46.2538 298.487 44.6227 298.487C42.9917 298.487 41.6694 299.933 41.6694 301.717C41.6694 303.5 42.9917 304.946 44.6227 304.946Z" fill="#FFECA8"/>
<path d="M31.781 245.653C33.4121 245.653 34.7344 244.207 34.7344 242.423C34.7344 240.64 33.4121 239.194 31.781 239.194C30.1499 239.194 28.8277 240.64 28.8277 242.423C28.8277 244.207 30.1499 245.653 31.781 245.653Z" fill="#FFECA8"/>
<path d="M41.3696 252.109C43.0007 252.109 44.3229 250.663 44.3229 248.879C44.3229 247.096 43.0007 245.65 41.3696 245.65C39.7386 245.65 38.4163 247.096 38.4163 248.879C38.4163 250.663 39.7386 252.109 41.3696 252.109Z" fill="#FFECA8"/>
<path d="M71.6287 243.739C73.2597 243.739 74.5819 242.293 74.5819 240.51C74.5819 238.726 73.2597 237.28 71.6287 237.28C69.9976 237.28 68.6754 238.726 68.6754 240.51C68.6754 242.293 69.9976 243.739 71.6287 243.739Z" fill="#FFECA8"/>
<path d="M161.633 244.08C163.264 244.08 164.586 242.634 164.586 240.85C164.586 239.067 163.264 237.621 161.633 237.621C160.002 237.621 158.68 239.067 158.68 240.85C158.68 242.634 160.002 244.08 161.633 244.08Z" fill="#FFECA8"/>
<path d="M102.753 257.184C104.384 257.184 105.706 255.738 105.706 253.955C105.706 252.171 104.384 250.725 102.753 250.725C101.122 250.725 99.7997 252.171 99.7997 253.955C99.7997 255.738 101.122 257.184 102.753 257.184Z" fill="#FFECA8"/>
<path d="M95.6458 268.86C97.2768 268.86 98.5991 267.414 98.5991 265.63C98.5991 263.846 97.2768 262.401 95.6458 262.401C94.0148 262.401 92.6926 263.846 92.6926 265.63C92.6926 267.414 94.0148 268.86 95.6458 268.86Z" fill="#FFECA8"/>
<path d="M103.074 211.67C104.706 211.67 106.028 210.224 106.028 208.441C106.028 206.657 104.706 205.211 103.074 205.211C101.443 205.211 100.121 206.657 100.121 208.441C100.121 210.224 101.443 211.67 103.074 211.67Z" fill="#FFECA8"/>
<path d="M113.135 205.399C114.766 205.399 116.088 203.953 116.088 202.17C116.088 200.386 114.766 198.94 113.135 198.94C111.504 198.94 110.182 200.386 110.182 202.17C110.182 203.953 111.504 205.399 113.135 205.399Z" fill="#FFECA8"/>
<path d="M95.7451 196.133C97.3761 196.133 98.6983 194.687 98.6983 192.903C98.6983 191.12 97.3761 189.674 95.7451 189.674C94.114 189.674 92.7918 191.12 92.7918 192.903C92.7918 194.687 94.114 196.133 95.7451 196.133Z" fill="#FFECA8"/>
<path d="M133.183 234.191C134.814 234.191 136.137 232.745 136.137 230.962C136.137 229.178 134.814 227.733 133.183 227.733C131.552 227.733 130.23 229.178 130.23 230.962C130.23 232.745 131.552 234.191 133.183 234.191Z" fill="#FFECA8"/>
<path d="M219.979 269.384C221.696 269.384 223.088 267.862 223.088 265.985C223.088 264.108 221.696 262.586 219.979 262.586C218.263 262.586 216.871 264.108 216.871 265.985C216.871 267.862 218.263 269.384 219.979 269.384Z" fill="#FFECA8"/>
<path d="M161.96 202.276C163.677 202.276 165.069 200.754 165.069 198.877C165.069 196.999 163.677 195.477 161.96 195.477C160.243 195.477 158.851 196.999 158.851 198.877C158.851 200.754 160.243 202.276 161.96 202.276Z" fill="#FFECA8"/>
<path d="M71.645 242.81C73.276 242.81 74.5982 241.364 74.5982 239.58C74.5982 237.797 73.276 236.351 71.645 236.351C70.0141 236.351 68.6919 237.797 68.6919 239.58C68.6919 241.364 70.0141 242.81 71.645 242.81Z" fill="#FFECA8"/>
<path d="M79.0898 256.07C80.7209 256.07 82.0431 254.625 82.0431 252.841C82.0431 251.057 80.7209 249.612 79.0898 249.612C77.4588 249.612 76.1366 251.057 76.1366 252.841C76.1366 254.625 77.4588 256.07 79.0898 256.07Z" fill="#FFECA8"/>
<path d="M98.321 285.877C99.9521 285.877 101.274 284.431 101.274 282.647C101.274 280.864 99.9521 279.418 98.321 279.418C96.6899 279.418 95.3677 280.864 95.3677 282.647C95.3677 284.431 96.6899 285.877 98.321 285.877Z" fill="#FFECA8"/>
<path d="M44.5615 291.329C46.1925 291.329 47.5148 289.883 47.5148 288.099C47.5148 286.316 46.1925 284.87 44.5615 284.87C42.9304 284.87 41.6082 286.316 41.6082 288.099C41.6082 289.883 42.9304 291.329 44.5615 291.329Z" fill="#FFECA8"/>
<path d="M73.8664 276.641C75.4974 276.641 76.8197 275.195 76.8197 273.411C76.8197 271.628 75.4974 270.182 73.8664 270.182C72.2353 270.182 70.9131 271.628 70.9131 273.411C70.9131 275.195 72.2353 276.641 73.8664 276.641Z" fill="#FFECA8"/>
<path d="M189.519 245.703C191.15 245.703 192.472 244.257 192.472 242.473C192.472 240.69 191.15 239.244 189.519 239.244C187.888 239.244 186.566 240.69 186.566 242.473C186.566 244.257 187.888 245.703 189.519 245.703Z" fill="#FFECA8"/>
<path d="M147.058 210.966C148.775 210.966 150.167 209.444 150.167 207.567C150.167 205.69 148.775 204.168 147.058 204.168C145.341 204.168 143.949 205.69 143.949 207.567C143.949 209.444 145.341 210.966 147.058 210.966Z" fill="#FFECA8"/>
<g filter="url(#filter0_d_148_3)">
<path d="M738.715 601.299C738.716 604.235 738.399 607.158 737.772 609.988H684.002C683.375 607.158 683.058 604.235 683.059 601.299C683.059 582.775 695.519 567.76 710.889 567.76C726.26 567.76 738.715 582.779 738.715 601.299Z" fill="#EB8C00"/>
</g>
<path d="M683.059 597.222L694.331 609.988" stroke="white" stroke-width="5" stroke-miterlimit="10" stroke-linecap="round"/>
<path d="M738.715 600.256L727.427 595.392L711.373 600.792V609.988H710.613V589.704L698.558 571.309C698.792 571.167 699.029 571.029 699.268 570.893L710.613 588.201V567.76H711.373V579.262L720.497 569.778C720.774 569.905 721.048 570.032 721.32 570.159L711.374 580.496V599.797L737.41 591.039C737.491 591.339 737.562 591.644 737.638 591.948L728.678 594.963L738.678 599.234C738.693 599.577 738.707 599.915 738.715 600.256Z" fill="white"/>
<g filter="url(#filter1_d_148_3)">
<path d="M738.974 622.607L566.372 621.799C566.372 621.799 579.157 574.654 643.822 571.576C668.423 570.406 656.005 598.119 662.282 594.147C675.783 585.604 685.426 581.058 691.562 585.487C701.526 592.679 690.095 607.279 696.185 606.694C702.274 606.11 711.364 598.492 718.223 604.35C725.082 610.209 714.871 616.067 718.223 616.654C721.575 617.24 738.682 605.934 738.974 622.607Z" fill="#59D7A9"/>
</g>
<g filter="url(#filter2_d_148_3)">
<path d="M211.752 620.814H50.8696C50.8696 613.917 59.6595 606.004 74.2931 608.16C74.0039 607.044 73.8581 605.899 73.8589 604.75C73.8589 595.877 82.4327 588.685 93.0076 588.685C94.3886 588.685 95.7662 588.812 97.1208 589.065C97.76 586.867 98.6461 584.74 99.7641 582.719C108.612 566.67 129.992 560.227 147.52 568.329C162.133 575.082 169.455 589.812 166.355 603.82C170.871 601.564 175.89 600.348 181.001 600.272C186.111 600.196 191.169 601.261 195.758 603.381C203.778 607.094 209.331 613.51 211.752 620.814Z" fill="#59D7A9"/>
</g>
<path d="M138 141H42C42 141 47.0724 115.64 75.0645 124.159C102.117 95.6294 121.092 122.376 121.092 122.376C121.092 122.376 138 120.989 138 141Z" fill="white"/>
<path d="M682 58H586C586 58 591.072 32.64 619.065 41.1594C646.117 12.6294 665.092 39.3762 665.092 39.3762C665.092 39.3762 682 37.9894 682 58Z" fill="white"/>
<path d="M497 141H401C401 141 406.072 115.64 434.065 124.159C461.117 95.6294 480.092 122.376 480.092 122.376C480.092 122.376 497 120.989 497 141Z" fill="white"/>
<path d="M368 58H179C179 58 188.986 8.97071 244.096 25.4415C297.356 -29.7165 334.712 21.9941 334.712 21.9941C334.712 21.9941 368 19.3128 368 58Z" fill="white"/>
<defs>
<filter id="filter0_d_148_3" x="679.059" y="567.76" width="63.6554" height="50.228" filterUnits="userSpaceOnUse" color-interpolation-filters="sRGB">
<feFlood flood-opacity="0" result="BackgroundImageFix"/>
<feColorMatrix in="SourceAlpha" type="matrix" values="0 0 0 0 0 0 0 0 0 0 0 0 0 0 0 0 0 0 127 0" result="hardAlpha"/>
<feOffset dy="4"/>
<feGaussianBlur stdDeviation="2"/>
<feComposite in2="hardAlpha" operator="out"/>
<feColorMatrix type="matrix" values="0 0 0 0 0 0 0 0 0 0 0 0 0 0 0 0 0 0 0.25 0"/>
<feBlend mode="normal" in2="BackgroundImageFix" result="effect1_dropShadow_148_3"/>
<feBlend mode="normal" in="SourceGraphic" in2="effect1_dropShadow_148_3" result="shape"/>
</filter>
<filter id="filter1_d_148_3" x="562.372" y="571.54" width="180.602" height="59.0664" filterUnits="userSpaceOnUse" color-interpolation-filters="sRGB">
<feFlood flood-opacity="0" result="BackgroundImageFix"/>
<feColorMatrix in="SourceAlpha" type="matrix" values="0 0 0 0 0 0 0 0 0 0 0 0 0 0 0 0 0 0 127 0" result="hardAlpha"/>
<feOffset dy="4"/>
<feGaussianBlur stdDeviation="2"/>
<feComposite in2="hardAlpha" operator="out"/>
<feColorMatrix type="matrix" values="0 0 0 0 0 0 0 0 0 0 0 0 0 0 0 0 0 0 0.25 0"/>
<feBlend mode="normal" in2="BackgroundImageFix" result="effect1_dropShadow_148_3"/>
<feBlend mode="normal" in="SourceGraphic" in2="effect1_dropShadow_148_3" result="shape"/>
</filter>
<filter id="filter2_d_148_3" x="46.8696" y="564.829" width="168.883" height="63.9853" filterUnits="userSpaceOnUse" color-interpolation-filters="sRGB">
<feFlood flood-opacity="0" result="BackgroundImageFix"/>
<feColorMatrix in="SourceAlpha" type="matrix" values="0 0 0 0 0 0 0 0 0 0 0 0 0 0 0 0 0 0 127 0" result="hardAlpha"/>
<feOffset dy="4"/>
<feGaussianBlur stdDeviation="2"/>
<feComposite in2="hardAlpha" operator="out"/>
<feColorMatrix type="matrix" values="0 0 0 0 0 0 0 0 0 0 0 0 0 0 0 0 0 0 0.25 0"/>
<feBlend mode="normal" in2="BackgroundImageFix" result="effect1_dropShadow_148_3"/>
<feBlend mode="normal" in="SourceGraphic" in2="effect1_dropShadow_148_3" result="shape"/>
</filter>
</defs>
</svg>
